<svg id="Flat" height="512" viewBox="0 0 512 512" width="512" xmlns="http://www.w3.org/2000/svg"><path d="m368 112h64v16h-64z" fill="#676767"/><path d="m416 160h48v16h-48z" fill="#676767"/><path d="m320 72h64v16h-64z" fill="#676767"/><path d="m456 128h16v16h-16z" fill="#4e4e4f"/><path d="m352 392h96v16h-96z" fill="#676767"/><path d="m352 424h48v16h-48z" fill="#676767"/><path d="m424 336h56v16h-56z" fill="#676767"/><path d="m416 424h16v16h-16z" fill="#4e4e4f"/><path d="m360 40h16v16h-16z" fill="#4e4e4f"/><path d="m488 256a233.524 233.524 0 0 1 -4.98 48l-43.02 8v56h-40l-32 32v59.21a232.109 232.109 0 0 1 -263.16-27.21q-8.82-7.575-16.85-16a233.283 233.283 0 0 1 -30.58-40q-4.725-7.8-8.84-16a230.561 230.561 0 0 1 -15.63-40q-2.25-7.89-3.96-16a230.937 230.937 0 0 1 -4.84-40c-.09-2.66-.14-5.32-.14-8s.05-5.34.14-8a230.937 230.937 0 0 1 4.84-40q1.695-8.115 3.96-16a230.561 230.561 0 0 1 15.63-40q4.11-8.19 8.84-16a233.283 233.283 0 0 1 30.58-40q8.025-8.415 16.85-16a232.3 232.3 0 0 1 231.16-41.83v73.83h40l48 32 8 56h49.18a232.3 232.3 0 0 1 6.82 56z" fill="#b3b1b3"/><path d="m146.745 217.1c9.7 9.7 22.76 14.9 37.17 14.9q2.327 0 4.7-.182c15.793-1.215 31.058-8.452 42.985-20.379s19.164-27.192 20.379-42.984c1.25-16.256-3.978-31.125-14.722-41.869-21.834-21.835-59.9-19.3-84.853 5.657-11.926 11.927-19.164 27.192-20.379 42.984-1.252 16.26 3.975 31.129 14.72 41.873zm1.232-40.642c.921-11.987 6.511-23.67 15.739-32.9 10.472-10.473 23.821-15.879 36.284-15.879 9.81 0 19.072 3.352 25.941 10.221 7.389 7.388 10.969 17.8 10.082 29.327-.921 11.988-6.511 23.67-15.739 32.9-9.227 9.227-20.911 14.817-32.9 15.739-11.523.883-21.939-2.695-29.327-10.083s-10.967-17.8-10.08-29.324z" fill="#808080"/><path d="m184 163.846h16v16h-16z" fill="#e4e4e3"/><path d="m272 136h104v16h-104z" fill="#808080"/><path d="m168 80h16v16h-16z" fill="#e4e4e3"/><path d="m200 80h112v16h-112z" fill="#808080"/><path d="m176 416h16v16h-16z" fill="#e4e4e3"/><path d="m104 304h16v16h-16z" fill="#e4e4e3"/><g fill="#808080"><path d="m208 264v40h208v16h-88v40h32v16h-96v40h80v16h-136v-16h40v-40h-190.59q-4.725-7.8-8.84-16h263.43v-40h-176v-16h56v-40h-167.86c-.09-2.66-.14-5.32-.14-8s.05-5.34.14-8h319.86v-40h-80v-16h144v16h-48v40h72v16z"/><path d="m120 192v16h-91.02q1.695-8.115 3.96-16z"/><path d="m120 136v16h-71.43q4.11-8.19 8.84-16z"/><path d="m152 80v16h-64.01q8.025-8.415 16.85-16z"/><path d="m88 304v16h-55.06q-2.25-7.89-3.96-16z"/><path d="m160 416v16h-55.16q-8.82-7.575-16.85-16z"/></g><path d="m448 248h16v16h-16z" fill="#e4e4e3"/></svg>